<svg xmlns="http://www.w3.org/2000/svg" width="117.558" height="176.26" viewBox="0 0 117.558 176.26"><defs><style>.a{fill:#eaf2f4;}.a,.b,.c,.d,.e,.f,.g,.h,.i,.j{fill-rule:evenodd;}.b{fill:#5f3fac;}.c{fill:#8989df;}.d{fill:#99a5ff;}.e{fill:#e7a376;}.f{fill:#da9569;}.g{fill:#e6e7e8;}.h{fill:#d1d3d4;}.i{fill:#f8a862;}.j{fill:#38251b;}</style></defs><g transform="translate(-79.791 -384.583)"><g transform="translate(126.187 384.583)"><path class="a" d="M276.094,732.354,243.2,713.62c-3.586-1.639-8.719-2.943-12.372-1.041-3.329,1.732-8.813,5.278-11.238,6.661-1.842,1.05-8.235,4.881-4.253,7.045,11.714,6.37,23.306,13.534,35.2,20,2.25,1.224,5.541,1.666,9,1.379a23.815,23.815,0,0,0,9.743-2.9q2.965-1.724,5.833-3.4c2.58-1.5,3.948-3.278,4.084-4.921C279.326,734.846,278.295,733.359,276.094,732.354Z" transform="translate(-208.043 -583.977)"/><path class="b" d="M288.173,713.8c.791,1.79,1.308,2.623,1.407,3.965.2,2.676-.572,5.345-1.629,9.308-.5,1.886-.078,2.923,1.791,2.65,1.471-.216,3.466-2.675,4.666-4.266,2.252-2.985,1.983-5.611,2.577-6.844l.861-.438c.6-.483,2.152-3.364,2.1-4.351a21.581,21.581,0,0,0-1.438-2.473c-1.883-2.441-2.054-1.891-4.228-3.218C292.257,710.078,290.27,711.933,288.173,713.8Z" transform="translate(-252.976 -581.84)"/><path class="c" d="M240.207,565.193c-2.018,6.565-4.415,21.21-4.738,27.9a10.954,10.954,0,0,0,2.184,5.928c4.8,6.757,16.971,24.724,18.415,26.182,3.38,1.207,7.147-2.627,7-5.983-4.454-4.238-12.032-24.2-17.45-26.019,1.793-5.9,5.761-18.188,6.5-23.538h0l-5.166-3.217-6.807-4.23C240.083,562.55,240.2,564.119,240.207,565.193Z" transform="translate(-221.098 -492.881)"/><path class="b" d="M332.046,644.381l-.378-.783.064-3.376c.191-3.469,2.082-4,3.959-4.466a3.513,3.513,0,0,1,3.469,1,5.425,5.425,0,0,1,.918,4.681,4.977,4.977,0,0,0-.267,3.35c.954,3.057.673,5.663-.349,7.344-.8,1.309-3.539,3.766-5.488,3.321-.909-.207-.712-1.263-.682-1.942C333.439,650.1,332.663,647.634,332.046,644.381Z" transform="translate(-279.748 -537.648)"/><path class="d" d="M254.479,567.545a91.382,91.382,0,0,0,2.359,13.209c-.363,2.464-2.672,13.971-2.85,18.671-.1,2.733.262,5,1.607,5.83,2.147,1.814,5.329.591,7.2.353,6.62-.842,16.6-2.11,22.834-3,4.55-.647,3.438-8.083.416-8.338-4.056.16-8.211-1.036-12.387-1.154a23.983,23.983,0,0,0-6.253.932c.98-1.867,2.015-3.669,2.926-5.353,6.137-11.344.557-15.746-1.9-21.379C260.937,574.112,263.682,573.09,254.479,567.545Z" transform="translate(-232.379 -495.993)"/><path class="e" d="M201.849,391.821a11.9,11.9,0,0,1,4.265,1.1c1.236.837,1.405,3.787,1.582,5.572-.041-.006.678,2.417.618,2.424-.866.091-4.232-.174-4.306-.53a2.339,2.339,0,0,0-1.653-1.75,11.429,11.429,0,0,1-2.166-1.134c-.39-.3-1.238-5.165-.526-5.814C200.007,391.379,200.593,391.639,201.849,391.821Z" transform="translate(-199.101 -388.829)"/><path class="f" d="M205.5,402.442c1.1-.406,1.524.884,2.733-.4a11.478,11.478,0,0,0-2.184-4.818,3.251,3.251,0,0,1-.223-1.97,10.821,10.821,0,0,0-2.794-.519c-1.815-.19-.038,3.116-.189,4.883a4.158,4.158,0,0,0,1.428,1.11C204.838,401,205.216,401.234,205.5,402.442Z" transform="translate(-200.822 -390.766)"/><path class="g" d="M218.463,426.71a95.523,95.523,0,0,0-3.26-13.958c-.129-.432-.669-.9-.8-1.345q-.248-.84-.505-1.723c-.395,1.287-2.529,2.075-4.332,1.212.079.561.148,1.136.208,1.72.063.607-.37,1.223-.324,1.844.309,4.144.364,8.812,1.061,12.448a11.9,11.9,0,0,0,.85,3.47,3.181,3.181,0,0,0,1,1.24c2.405,1.7,10.409,9.875,15.086,12.523,6.524,3.695,9.262-4.673,4.587-9.295C228.746,431.6,222.1,428.774,218.463,426.71Z" transform="translate(-205.233 -399.886)"/><path class="e" d="M213.126,393.186c-1.582-.225-2.051-2.764-2.047-3.635a11.786,11.786,0,0,0,.079-2.584c-.378-1.365-.047-1.92.183-2.177.288-.325,1.253-.495,1.237,1.326a9.052,9.052,0,0,0,1.385,2.369,5.25,5.25,0,0,1,.591,3.252C214.343,392.8,213.7,393.268,213.126,393.186Z" transform="translate(-206.173 -384.584)"/><path class="f" d="M198.79,395.518c.257.928,1.676.956,2.676.842l.83-.094.045.1.347,4.231c.059.72-.114.9-.87.893-1.4-.023-1.992-.106-2.3-1.28a37.714,37.714,0,0,1-.774-4.5C198.738,395.611,198.8,395.614,198.79,395.518Z" transform="translate(-198.711 -391.25)"/><path class="e" d="M199.873,391.559c-.916-.306-1.532,1.341-1.05,2.129.335.593,1.169.662,1.767.695a12.363,12.363,0,0,0,1.252-.005c.578-.027.695-.76.425-1.125-.236-.32-1.579-.294-2.1-.417C199.249,392.615,199.918,391.742,199.873,391.559Z" transform="translate(-198.654 -388.813)"/><path class="h" d="M267.471,477.941c-2.645-1.466-11.764-7.261-14.432-6.866a7.66,7.66,0,0,0-6.178,4.217c-1.563,3.053-2.46,7.383-2.084,12.97.608,9.019.431,6.667-.291,15.8-.224,2.839.631,3.614.447,5.864.038.946-.03,1.785-.019,2.433,5.036,6.434,18.683,6.022,20.058.393l-.137-1.219c2.233-3.123,2.549-9.36,3.91-14.219,1.437-5.129,3.271-10.308,3.24-13.6C271.959,480.874,269.565,479.1,267.471,477.941Z" transform="translate(-226.573 -437.303)"/><path class="g" d="M304.44,496.751c-.751-1.341-1.882-2.485-3.517-1.817-3.89,1.591-4.745,7.978-1.368,11.637l6.733,7.294c2.584,3.042,4.756,3.849,5.921,3.2a2.722,2.722,0,0,0,1.349-2.023c.274-1.063-.822-4.057-2.126-6.03C309.252,505.708,306.9,500.647,304.44,496.751Z" transform="translate(-258.887 -451.74)"/><g transform="translate(24.266 59.52)"><g transform="translate(0 6.19)"><path class="e" d="M262,560.818c-.812-.342-.993-.527-1.078-.754a3.709,3.709,0,0,1,.848-3.225c.358-.248,1.064.142,2.138.617,1.938.857,3.581.991,2.423,5.046Z" transform="translate(-260.821 -555.265)"/><path class="f" d="M263.035,561.31c-.35-.3-.446-.814-.168-1.577.134-.367.208-.593.3-.875-.165-.069-1.227-.4-1.159-.966.05-.246,1.462-.285,1.427-.456a6.147,6.147,0,0,1,1.108.387c1.938.857,3.669,1.036,2.511,5.09Z" transform="translate(-261.544 -555.676)"/><path class="i" d="M272.48,557.675c-3.231,1.114-4.458,2.505-5.216,2.591-.641.072-4.336-1.466-5.319-2.1-.294-.207-.31-1.082-.156-1.129a26.564,26.564,0,0,0,2.564-1.218c.746-.344.731-.418.45-.623-.546-.165-2.292,1.5-3.085-.237.357-.123,1.583-.932,1.9-1.077a13.441,13.441,0,0,1,2.407-.86,3.123,3.123,0,0,1,1.737.068,5.286,5.286,0,0,0,2.841.454Z" transform="translate(-261.353 -552.927)"/></g><path class="g" d="M303.457,542.938c-3.473,2.669-10.875,3.643-16.447,5.258-.271.079-1.174-.2-1.431-.126l-1.134.329c-1.059-.7-1.441-3.206-1.246-4.558l1.309-.448c.31-.187.586-.507.842-.636,5.576-1.755,9.778-4.491,13.321-5.526a4.733,4.733,0,0,1,4.607,1.433C304.606,539.9,305.3,541.524,303.457,542.938Z" transform="translate(-274.434 -537.067)"/></g><g transform="translate(23.926 18.308)"><path class="e" d="M274.6,467.423c.2,2.329-6.778,5.9-7.6,3.321-.507-1.582-.112-6.558-.7-8.718l6.044-3,2.2-.881C273.789,461.773,273.246,464.381,274.6,467.423Z" transform="translate(-263.818 -447.738)"/><path class="g" d="M263.3,484.557c-.28-.7-.181-2.583-.388-3.585-.828.105-1.957,2.944-2.661,4.421A4.471,4.471,0,0,1,263.3,484.557Z" transform="translate(-260.132 -461.656)"/><path class="g" d="M274.688,477.881c.11,1.949-4.567,4.138-7.4,4.812.711.858,1.639,1.932,1.6,2.789,2.043-.559,5.793-1.806,7.2-4.419C277.047,479.278,275.619,478.593,274.688,477.881Z" transform="translate(-264.424 -459.772)"/><path class="j" d="M266.056,439.712c-1.328.462-1.717,1.606-1.952,3.5a11.379,11.379,0,0,1,1.673-2.092Z" transform="translate(-262.483 -436.502)"/><path class="i" d="M263.392,452.653c.918-.2,3.084-.489,3.925-.717,1.84-.5,2.185-1.906,3.413-3.848,1.711-.44,2.455-1.026,2.908-1.839a6.679,6.679,0,0,0-.333-6.382,5.8,5.8,0,0,0-4.319-2.771c-3.711-.573-5.881.676-7.206,3.566a8.863,8.863,0,0,0-.429,1.566c-.045.667.082.826.007,1.276a2.108,2.108,0,0,1-.489.985c-.707.872-1.216,5.969-.721,6.721A3.513,3.513,0,0,0,263.392,452.653Z" transform="translate(-259.951 -434.824)"/><path class="b" d="M272.566,445.5c.978-.185,4.63-.892,6.237-1.275,1.644-.393,3.433-.8,4.339.44a7.352,7.352,0,0,1-.315,5.154c-.838,1.738-2.507,2.982-4.6,4.193-.788.455.038-2.112,0-2.71-.6.826-1.037,1.121-1.348,1.1-.226-.016-.5.043-.162-1.132.513-1.8-.258-2.333.491-3.4.6-.852-.057-.915-.157-1.345C275.711,446.212,274.306,446.522,272.566,445.5Z" transform="translate(-267.642 -439.013)"/><path class="i" d="M285.872,460.782c1.516-.087,1.08,1.516.6,2.426-.333.625-.87.423-1.215.893a1.307,1.307,0,0,1-1.393.59c-.836-.258.034-1.366.272-1.835C284.26,462.014,284.909,460.836,285.872,460.782Z" transform="translate(-274.31 -449.345)"/><path class="b" d="M266.7,431.558c.673.6,1.55.1,4.757-.06,3.338-.17,7.485,1.671,7.34,5.456.007.107.012.215.011.326-1.131-.018-2.739.723-4.491,1.109-2.412.532-5.041.656-6.7-.342C265.476,436.761,264.266,433.367,266.7,431.558Z" transform="translate(-263.245 -431.487)"/></g></g><g transform="translate(79.791 421.405)"><path class="a" d="M101.958,778.732l26.3-14.979c2.867-1.31,6.971-2.353,9.892-.832,2.662,1.385,7.046,4.22,8.985,5.326,1.473.84,6.585,3.9,3.4,5.634-9.366,5.093-18.635,10.821-28.145,15.994a13.348,13.348,0,0,1-7.192,1.1,19.031,19.031,0,0,1-7.79-2.32q-2.371-1.378-4.664-2.714c-2.063-1.2-3.157-2.621-3.266-3.935C99.374,780.725,100.2,779.536,101.958,778.732Z" transform="translate(-91.789 -651.605)"/><g transform="translate(0)"><g transform="translate(5.582 14.561)"><path class="b" d="M123.452,516.914c2.027-.313,3.629,1.08,4.44,2.942a10.991,10.991,0,0,1,.5,6.475c-1.32,4.808,1.006,6.9,1.862,9.142a9.769,9.769,0,0,1,.494,3.7c-.057,1.722-1.05,2.608-1.881,4.15a13.6,13.6,0,0,1-1.212,4.262c-2.28,4.56-9.95,6.762-17.312,6.425-5.892-.27-11.587-2.355-14.165-4.751-2.83-2.63-3.195-9.306,1.558-9.987a4.854,4.854,0,0,0,3.341-1.545c.65-.787.022-2.863-.134-5.628-.151-2.677.459-5.493,4.351-6.433a12.688,12.688,0,0,0,4.187-1.324c2.718-1.784,1.723-5.1,4.67-7.047,1.78-1.178,4.643-1.433,7.772-.565C122.423,516.794,122.935,516.858,123.452,516.914Z" transform="translate(-94.091 -516.22)"/><path class="b" d="M140.382,524.455A4.914,4.914,0,0,1,139.3,528c-1.811,2.556-2.763,2.356-3.754,5.612-1.63-1.087-2.748-1.253-3.218-.185-.756,1.717-.279,2.733-.455,4.51-.286,2.888-3.738-1.071-6.445,1.143-2.661,2.176-.835,3.7-1.862,6.784-.385,1.153-.683,2.669-1.76,3.178-3.347,1.585-4.629,5.574,1.33,7.555,3.691,1.227,9.052.92,13.531-.607,5.914-2.016,9.561-10.74,8.052-14.884-.625-1.715-2.311-3-2.32-4.335C142.364,532.161,143.254,529.208,140.382,524.455Z" transform="translate(-109.263 -521.241)"/></g><g transform="translate(28.229 58.446)"><g transform="translate(0.379 54.433)"><path class="e" d="M160.387,768.1c-2.833,1.456-.621,2.007-2.109,4.917-.131.257-1.116,5.263-1.116,5.263s2.4,1.959,2.618,2.02,2.174.215,2.174.215c-.024-.308.074-.985.066-1.26a19.76,19.76,0,0,1,1.18-5.859,33.994,33.994,0,0,1,1.115-3.9Z" transform="translate(-155.569 -768.101)"/><path class="b" d="M159.568,780.628a13.477,13.477,0,0,1-.1,2.162.941.941,0,0,1-.387.71c-1.048.6-3.645-2.47-4.324-3.935a3.727,3.727,0,0,1,.109-2.686c.349-1.481.373-1.654.663-3.206l-2.05,3.659-.4.052a46.55,46.55,0,0,0,1.7-5.155c.137-.573.238-1.249.344-1.553a3.311,3.311,0,0,1,2.855-2.408c-.751.925-.621,3.03-1.22,5.337C156.034,776.4,157.295,779.558,159.568,780.628Z" transform="translate(-153.082 -768.203)"/></g><path class="c" d="M163.562,628.649c3.685,5.917,9.362,18.745,11.584,25.059a4.586,4.586,0,0,1,.366,3.13,3.239,3.239,0,0,1-.589,1.484c-3.963,8.891-8.914,18.033-13.456,26.638-1.118.7-3.372.189-4.931-1.6,1.6-4.829,2.55-12.714,4.551-17.42a37.957,37.957,0,0,1,4.482-7.592,11.56,11.56,0,0,1,.461-2.415,9.967,9.967,0,0,1-.6-.951c-4.549-5.9-10.553-13.595-13.313-20.082Z" transform="translate(-152.112 -628.649)"/></g><g transform="translate(0 53.99)"><g transform="translate(0 21.904)"><path class="e" d="M99.76,680.161c-1.63-2.737-2.041-.494-5.04-1.8-.264-.114-5.323-.784-5.323-.784s-1.8,2.517-1.852,2.74-.078,2.182-.078,2.182c.305-.043.987.012,1.262-.013a19.744,19.744,0,0,1,5.922.81,34.054,34.054,0,0,1,3.958.868Z" transform="translate(-84.471 -675.928)"/><path class="b" d="M85.037,679.852c-.663.1-1.575.134-2.275.192a12.911,12.911,0,0,1-2.142.018.943.943,0,0,1-.733-.341c-.66-1.009,2.237-3.793,3.656-4.563a3.728,3.728,0,0,1,2.688-.06c1.5.255,1.674.269,3.241.461l-3.781-1.817-.077-.394a46.5,46.5,0,0,0,5.251,1.372c.58.1,1.261.16,1.571.246a3.31,3.31,0,0,1,2.582,2.7c-.971-.691-3.013-.551-5.353-1-2.45-.474-5.448-.119-6.03.81a4.468,4.468,0,0,0,.045,2.14C83.721,679.844,84.464,679.866,85.037,679.852Z" transform="translate(-79.791 -673.348)"/></g><path class="d" d="M125.308,623.668c-.976,4.242-1.681,7.619-.459,10.529,1.333,3.177,4.23,5.674,8.173,9.884-.455-.106-.917-.2-1.391-.29a153.563,153.563,0,0,0-16.813-1.506c-1.02,1.284-1.593,4.181-.93,5.022,7.386,1.536,13.886,3.465,19.733,5.209,2.695.8,5.515,1.692,8.725,2.723a4.19,4.19,0,0,0,4.446-1.151,4.24,4.24,0,0,0,1.61-4.456,24.77,24.77,0,0,0-1.829-4.541c-2.057-3.843-4.626-8.391-6.936-12.214.342-6.322,1-9.724.41-12.547a12.091,12.091,0,0,0-2.4-3.1Z" transform="translate(-100.405 -617.233)"/></g><g transform="translate(32.236 24.456)"><path class="i" d="M196.527,548.492a5.2,5.2,0,0,0,.464-1.128c.085-.42-.2-.481-.332-1.111a18.106,18.106,0,0,1-.136-1.842,5.864,5.864,0,0,1,.258-1.687.791.791,0,0,1,.91-.725,5.956,5.956,0,0,1,.811.25,3.419,3.419,0,0,1,1.164-.592.874.874,0,0,1,1.052.22,5.725,5.725,0,0,1,1.191,1.315,9.792,9.792,0,0,1,.48,2.116c.109.75.121,1.042-.195,1.458a11.974,11.974,0,0,1-1.614,1.63,9.4,9.4,0,0,0-1.3,1.846c-2.2,4.876-2.79,9.7-5.788,13.881a1.727,1.727,0,0,1-1.086.75c-.715.16-1.843-.856-2.652-1.235l.61-4.661C191.063,556.585,194.135,552.009,196.527,548.492Z" transform="translate(-179.066 -541.57)"/><g transform="translate(17.445 0)"><path class="e" d="M211.548,556.4a4.173,4.173,0,0,1-1.3-.339c.223-.337.331-.619,1.041-1.856a3.229,3.229,0,0,1,1.964-1.8c-.363-.2-.3-.058-.537-.4-.2.3-.608.49-.72.368a.646.646,0,0,1-.1-.627,1.181,1.181,0,0,1,1.033-.734,8.838,8.838,0,0,1,2,1.05,1.2,1.2,0,0,1-.233.463,11.969,11.969,0,0,1-1.614,1.63A10.58,10.58,0,0,0,211.548,556.4Z" transform="translate(-209.007 -547.324)"/><path class="i" d="M210.531,542.04c.157.042.35.1.639.209a3.42,3.42,0,0,1,1.164-.591.873.873,0,0,1,1.052.22,5.723,5.723,0,0,1,1.191,1.315,9.792,9.792,0,0,1,.48,2.116,2.347,2.347,0,0,1,.011,1.091c-.66-.335-1.407-.784-2.049-1.164-.289.112-1.344.743-.825,1.4a6.93,6.93,0,0,1-.91-2.28,16.42,16.42,0,0,1-.548-2.185Z" transform="translate(-209.18 -541.571)"/><path class="e" d="M210.531,542.04c.157.042.35.1.639.209a3.415,3.415,0,0,1,1.164-.591,1.249,1.249,0,0,1,.407-.087l.279,3.666c-.289.112-1.344.743-.825,1.4a6.93,6.93,0,0,1-.91-2.28,16.42,16.42,0,0,1-.548-2.185Z" transform="translate(-209.18 -541.571)"/><path class="i" d="M207.082,545.056a5.863,5.863,0,0,1,.258-1.687.791.791,0,0,1,.91-.725,5.907,5.907,0,0,1,.811.249c.322.064.339.086.476.281a.753.753,0,0,1-.233.7A13.428,13.428,0,0,1,207.082,545.056Z" transform="translate(-207.07 -542.215)"/><path class="e" d="M210.405,544.046a1.357,1.357,0,0,1-1.906.512,1.177,1.177,0,0,0,1.087.635A.841.841,0,0,0,210.405,544.046Z" transform="translate(-207.941 -543.08)"/></g><path class="h" d="M179.471,559.071c.071-.143.427-.741.482-.858A4.7,4.7,0,0,0,182.869,560c-.075.122-.415.838-.493.973a3.134,3.134,0,0,0-.1.883c-.2,2.62-2.616,8.425-5.477,12.411a1.727,1.727,0,0,1-1.086.75c-.584.13-2.014-.853-2.675-1.2-2.27-1.179-6.748-5.8-10.661-13.452a9.6,9.6,0,0,1,2.439-1.773,3.47,3.47,0,0,1,3.273.12c.993.678,2.108,2.234,3.289,4.686a48.509,48.509,0,0,0,2.705,4.629,60.047,60.047,0,0,1,4.777-8.48C179.015,559.322,179.317,559.3,179.471,559.071Z" transform="translate(-162.377 -551.717)"/></g><path class="g" d="M138.017,580.3c1.953,3.875-.788,6.264.265,9.008l-.178,1.545c3.141,2.257,14.186,1.92,17-2.552l.059-2.23c.485-1.068.144-3.26,0-3.972-.452-2.264-.241-3.466-.488-6.084-.066-.7-.135-1.41-.206-2.117q-.022-.22-.042-.438a4.263,4.263,0,0,0,1.722-2.512,5.35,5.35,0,0,0-.86-4.336,19.048,19.048,0,0,1-1.946-3.436,15.466,15.466,0,0,0-.433-1.968,3.272,3.272,0,0,0-.524-1.075c-.714-1.02-2-1.536-4.227-.6a50.219,50.219,0,0,0-6.976,3.409,28.571,28.571,0,0,0-4.9,3.976,3.433,3.433,0,0,0-.622,1.815A25.666,25.666,0,0,0,138.017,580.3Z" transform="translate(-113.837 -527.763)"/><g transform="translate(21.353)"><path class="i" d="M149.6,489.891c.156-1.1.329-2.178.537-3.206.4-1.988,1.622-1.364,2.517-1.685.4-.144.647-.726.827-1.323a6.791,6.791,0,0,0,.294-1.343c0-.2-.86-1.9-1.057-2.487a.516.516,0,0,0-.745-.131c-.616-.169-.849-.237-1.812-.441-1.338-.282-2.653-.482-2.915-.259a3.491,3.491,0,0,0-.743,2.555c.061,1.335.313,2.49.252,3.427a24.351,24.351,0,0,1-.84,4.586Z" transform="translate(-141.457 -478.919)"/><path class="e" d="M136.814,499.338c-.1.828-.094,6.035-.047,8.366-.27,5.278-2.028,8.741-1.495,12.368.212,1.44,1.032,2.431,1.964,4.294.655,1.626,1.07,2.054,1.547,2.254,2.273-1.98-.8-7.929-1.125-9.013a162,162,0,0,0,1.221-17.6c.792-4.377,2.013-10.813,2.831-14.858.4-1.987,1.458-1.305,2.388-1.544-.1-.423-2.123-.9-1.47-.968.607-.059,2.716-.048,2.8-.373.039-1.754,0-2.405-1.889-2.812-1.337-.288-2.583-.623-2.845-.4a3.49,3.49,0,0,0-.743,2.555c.06,1.335.313,2.49.252,3.427C139.9,489.637,137.331,495.05,136.814,499.338Z" transform="translate(-134.908 -478.955)"/><path class="e" d="M160.3,480.777a4.12,4.12,0,0,1,.211,1.877,1.144,1.144,0,0,0,.575.939,1.874,1.874,0,0,1-2.065,1.22c.923-.252.968-.282,1.337-1.42C160.085,482.479,159.513,480.7,160.3,480.777Z" transform="translate(-149.448 -480.05)"/><path class="i" d="M154.477,480.609a.873.873,0,0,0-.456-.973,8.6,8.6,0,0,0-2.349-.521c-1.2-.173-2.306-.312-2.424-.059.783.542,1,1.054.954,1.451a8.824,8.824,0,0,1-.541,1.383,6.952,6.952,0,0,0,2.428.362,12.127,12.127,0,0,0,1.992.009A3.347,3.347,0,0,0,154.477,480.609Z" transform="translate(-143.49 -478.917)"/><path class="g" d="M135.99,510.172c-.175,1.453-1.1,11.411-1.367,16.879a28.85,28.85,0,0,0-.095,3.591c.119.969.9,6.837,3.368,6.776A3.232,3.232,0,0,0,141.089,535a13.489,13.489,0,0,0,.182-6.739c-.049-5.865.133-11.472.246-17.284.611-3.375,1.331-7.312,1.622-10.663a8.584,8.584,0,0,0-.079-1.374,6.891,6.891,0,0,1,.116-1.273,4.078,4.078,0,0,1-3.5-1.21c-.064.557-.245,1.094-.359,1.666a4.61,4.61,0,0,0-.529.9A64.9,64.9,0,0,0,135.99,510.172Z" transform="translate(-134.495 -489.613)"/></g><g transform="translate(29.239 19.634)"><path class="e" d="M155.951,551.691a12.362,12.362,0,0,1-.47,6.049c1.7,1.571,4.716.9,5.417-.52-.148-.921-.321-1.767-.42-2.713Z" transform="translate(-155.176 -542.918)"/><path class="i" d="M162.486,529.216a6.726,6.726,0,0,1,1.1,4.606,1.979,1.979,0,0,0,.158,1.1,4.345,4.345,0,0,1,.329,3.771c-.381,1.392-.356,2.12-.831,2.6a2.771,2.771,0,0,1-1.835.642,11.072,11.072,0,0,1-4.706-1.447c-.937-.513-.9-.863-1.3-1.752-1.323-1.151-.466-1.991-.023-2.077,1.271-.247,1.477,1.218,2.23,1.542C157.488,535.627,162.392,531.282,162.486,529.216Z" transform="translate(-154.699 -529.216)"/><path class="e" d="M167.038,529.216c-.712,3.16-4.838,5.552-4.873,8.984C163.294,534.633,167.3,532.192,167.038,529.216Z" transform="translate(-159.251 -529.216)"/></g></g></g></g></svg>