<?xml version="1.0" encoding="utf-8"?>
<!-- Generator: Adobe Illustrator 23.0.3, SVG Export Plug-In . SVG Version: 6.00 Build 0)  -->
<svg version="1.1" id="Capa_1" xmlns="http://www.w3.org/2000/svg" xmlns:xlink="http://www.w3.org/1999/xlink" x="0px" y="0px"
	 viewBox="0 0 222.8 49.2" style="enable-background:new 0 0 222.8 49.2;" xml:space="preserve">
<style type="text/css">
	.st0{fill:url(#SVGID_1_);}
	.st1{fill:#BBBDBF;}
	.st2{fill:url(#SVGID_2_);}
	.st3{fill:url(#SVGID_3_);}
	.st4{fill:url(#SVGID_4_);}
	.st5{fill:url(#SVGID_5_);}
	.st6{fill:#4A2B75;}
	.st7{fill:#666666;}
	.st8{fill:#6E6E6E;}
</style>
<g>
	<g>
		
			<linearGradient id="SVGID_1_" gradientUnits="userSpaceOnUse" x1="-1530.8445" y1="518.1035" x2="-1531.3419" y2="516.1913" gradientTransform="matrix(11.6393 -20.454 -20.454 -11.6393 28423.2676 -25273.166)">
			<stop  offset="0" style="stop-color:#FFFFFF"/>
			<stop  offset="0.3933" style="stop-color:#A8AAAD"/>
			<stop  offset="0.4815" style="stop-color:#8F9093"/>
			<stop  offset="0.5888" style="stop-color:#77787B"/>
			<stop  offset="0.7021" style="stop-color:#66676A"/>
			<stop  offset="0.8245" style="stop-color:#5C5C5F"/>
			<stop  offset="0.9719" style="stop-color:#59595C"/>
			<stop  offset="1" style="stop-color:#5C5C5F"/>
		</linearGradient>
		<path class="st0" d="M13.2,44.8C2,38.4-1.9,24.3,4.5,13.1C10.8,1.9,25-2,36.2,4.4s15.1,20.5,8.7,31.7
			C38.5,47.2,24.3,51.1,13.2,44.8z"/>
		<path class="st1" d="M13.2,44.7c-5.4-3.1-9.2-8-10.9-14c-1.6-6-0.9-12.2,2.2-17.6s8-9.2,14-10.9c6-1.6,12.2-0.9,17.6,2.2
			s9.2,8,10.9,14c1.6,6,0.9,12.2-2.2,17.6c-3.1,5.4-8,9.2-14,10.9C24.8,48.5,18.6,47.7,13.2,44.7z M45,36.1
			c3.1-5.4,3.9-11.7,2.2-17.7s-5.5-11-11-14.1c-5.4-3.1-11.7-3.9-17.7-2.2s-11,5.5-14.1,11c-3.1,5.4-3.9,11.7-2.2,17.7
			s5.6,11,11,14.1s11.7,3.9,17.7,2.2S41.9,41.5,45,36.1z"/>
	</g>
	
		<linearGradient id="SVGID_2_" gradientUnits="userSpaceOnUse" x1="-2860.5737" y1="62.2618" x2="-2860.5737" y2="103.5572" gradientTransform="matrix(0.7071 -0.7071 -0.7071 -0.7071 2105.937 -1939.4863)">
		<stop  offset="0" style="stop-color:#FFFFFF"/>
		<stop  offset="1" style="stop-color:#434345"/>
	</linearGradient>
	<path class="st2" d="M10.8,38.4l0.8-0.8C8,34,6.2,29.3,6.2,24.5c0-4.7,1.8-9.5,5.4-13.1S19.9,6,24.7,6c4.7,0,9.5,1.8,13.1,5.4
		c3.6,3.6,5.4,8.3,5.4,13.1c0,4.7-1.8,9.4-5.4,13.1c-3.6,3.6-8.3,5.4-13.1,5.4c-4.7,0-9.5-1.8-13.1-5.4L10.8,38.4L10,39.2
		c8.1,8.1,21.1,8.1,29.2,0s8.1-21.1,0-29.2S18.1,1.9,10,10s-8.1,21.1,0,29.2L10.8,38.4z"/>
	
		<radialGradient id="SVGID_3_" cx="-2902.6853" cy="-1.5792" r="20.0492" fx="-2903.5537" fy="9.0308" gradientTransform="matrix(0.7071 -0.7071 -0.7071 -0.7071 2076.2273 -2029.1605)" gradientUnits="userSpaceOnUse">
		<stop  offset="0" style="stop-color:#8D69A2"/>
		<stop  offset="0.2688" style="stop-color:#8B66A1"/>
		<stop  offset="0.4423" style="stop-color:#835E9E"/>
		<stop  offset="0.5884" style="stop-color:#754F99"/>
		<stop  offset="0.7192" style="stop-color:#623A91"/>
		<stop  offset="0.7247" style="stop-color:#613991"/>
		<stop  offset="1" style="stop-color:#613991"/>
	</radialGradient>
	<circle class="st3" cx="24.9" cy="24.4" r="20.1"/>
	
		<linearGradient id="SVGID_4_" gradientUnits="userSpaceOnUse" x1="-2918.8838" y1="-615.8456" x2="-2918.8838" y2="-633.9386" gradientTransform="matrix(0.7071 -0.7071 -0.5807 -0.5807 1717.5865 -2410.9072)">
		<stop  offset="0" style="stop-color:#FFFFFF"/>
		<stop  offset="1" style="stop-color:#6B448D"/>
	</linearGradient>
	<path class="st4" d="M32,7.4c5.3,2.6-3,2.5-12.2,11.7S11.2,36.4,7.9,31.6c-3.5-5.1-3-15.1,3.5-20.9C17.8,4.8,25.2,4.1,32,7.4z"/>
</g>
<linearGradient id="SVGID_5_" gradientUnits="userSpaceOnUse" x1="32.922" y1="-715.6647" x2="16.6213" y2="-687.4308" gradientTransform="matrix(1 0 0 -1 0 -676.1102)">
	<stop  offset="0" style="stop-color:#FFFFFF"/>
	<stop  offset="0.2515" style="stop-color:#FFFFFF"/>
</linearGradient>
<path class="st5" d="M37,17.3l-4.6-0.4v16.9H37v3.4h-8.6h-7.3h-8.6v-3.4h4.6V16.9l-4.6,0.4v-3.6l11.7-3.4v23.5h1.1V10.2L37,13.6
	V17.3z"/>
<g>
	<polygon class="st6" points="33.3,34.6 37,34.6 37,33.7 32.5,33.7 	"/>
	<polygon class="st6" points="25.1,34.6 26.2,34.6 26.2,11.5 37,14.6 37,13.6 25.3,10.2 25.3,33.7 24.3,33.7 	"/>
	<polygon class="st6" points="13.4,14.5 24.2,11.3 24.2,10.2 12.5,13.6 12.5,17.3 13.4,17.2 	"/>
	<polygon class="st6" points="13.4,34.6 17.9,34.6 17.9,17.7 17.1,16.9 17.1,33.7 12.5,33.7 12.5,37.1 13.4,37.1 	"/>
</g>
<g>
	<path class="st7" d="M187.8,27.1c0.3,0,0.6,0.1,0.8,0.3s0.3,0.5,0.3,0.8s-0.1,0.6-0.3,0.8s-0.5,0.3-0.8,0.3s-0.6-0.1-0.8-0.3
		s-0.3-0.5-0.3-0.8s0.1-0.6,0.3-0.8S187.5,27.1,187.8,27.1z"/>
	<path class="st8" d="M56.4,27.5c0,1.4,0.6,1.6,1.7,1.6v0.4h-5.3v-0.4c1.1,0,1.7-0.2,1.7-1.6v-6c0-1.7-0.5-1.7-0.9-1.7
		c-0.3,0-0.6,0.1-0.8,0.2l-0.2-0.4l3.3-1.3h0.5V27.5z M55.4,12.6c0.7,0,1.2,0.5,1.2,1.2S56.1,15,55.4,15s-1.2-0.5-1.2-1.2
		C54.2,13.2,54.8,12.6,55.4,12.6z"/>
	<path class="st8" d="M62.4,20.6c1.4-1.5,2.3-2.3,3.7-2.3c2,0,2.8,1.9,2.8,3.7v5.5c0,1.4,0.6,1.6,1.7,1.6v0.4h-5.3v-0.4
		c1.1,0,1.7-0.2,1.7-1.6v-5.1c0-2.4-1-2.7-1.7-2.7c-1.1,0-2,0.7-2.8,1.6v6.1c0,1.4,0.6,1.6,1.7,1.6v0.4h-5.3V29
		c1.1,0,1.7-0.2,1.7-1.6v-6c0-1.7-0.5-1.7-0.9-1.7c-0.3,0-0.6,0.1-0.8,0.2l-0.2-0.4l3.3-1.3h0.4C62.4,18.2,62.4,20.6,62.4,20.6z"/>
	<path class="st8" d="M78.7,21c0.1-0.3,0.4-0.9,0.4-1.2c0-0.6-0.5-0.6-1.2-0.6v-0.4h3.5v0.4c-1,0-1.4,0.8-1.7,1.7L75.9,30h-0.5
		l-3.8-9c-0.5-1.1-0.7-1.7-2-1.9v-0.4h5.1v0.4c-0.8,0-1.3,0.1-1.3,0.9c0,0.4,0.2,0.9,0.4,1.2l2.4,5.8L78.7,21z"/>
	<path class="st8" d="M83.5,22.8c0,2.4,1.3,5.2,3.9,5.2c1.8,0,2.7-1,3.3-2.6l0.4,0.2c-0.4,2.2-2,4.3-4.5,4.3c-2.7,0-4.8-2.3-4.8-5.6
		c0-3.1,1.6-6,5.1-6c2.5,0,4.2,1.8,4.2,4.5C91.1,22.8,83.5,22.8,83.5,22.8z M88.6,22.1c0-1.5-0.8-2.9-2.5-2.9
		c-1.4,0-2.5,1.4-2.6,2.9H88.6z"/>
	<path class="st8" d="M95.6,20.7L95.6,20.7c0.6-0.9,1.5-2.3,2.8-2.3c0.7,0,1.5,0.5,1.5,1.3c0,0.6-0.5,1.1-1,1.1
		c-0.8,0-1.2-0.8-1.7-0.8c-0.6,0-1.3,1.4-1.6,1.8v4.6c0,2,0,2.8,2,2.8v0.4h-5.7v-0.4c1.1,0,1.7-0.2,1.7-1.6v-6
		c0-1.7-0.5-1.7-0.9-1.7c-0.3,0-0.6,0.1-0.8,0.2l-0.2-0.4l3.3-1.3h0.5L95.6,20.7L95.6,20.7z"/>
	<path class="st8" d="M106,18.7v0.9h-2.6v6.7c0,1,0,2.1,1.1,2.1c0.5,0,1.1-0.5,1.3-1h0.5c-0.4,1.2-1.4,2.3-2.8,2.3
		c-0.8,0-2.1-0.5-2.1-2.6v-7.6h-1.7V19c1.3-0.6,2.4-1.7,3.3-4h0.4v3.6h2.6C106,18.6,106,18.7,106,18.7z"/>
	<path class="st8" d="M110.5,27.5c0,1.4,0.6,1.6,1.7,1.6v0.4h-5.3v-0.4c1.1,0,1.7-0.2,1.7-1.6v-6c0-1.7-0.5-1.7-0.9-1.7
		c-0.3,0-0.6,0.1-0.8,0.2l-0.2-0.4l3.3-1.3h0.5C110.5,18.3,110.5,27.5,110.5,27.5z M109.5,12.6c0.7,0,1.2,0.5,1.2,1.2
		s-0.5,1.2-1.2,1.2s-1.2-0.5-1.2-1.2C108.4,13.2,108.9,12.6,109.5,12.6z"/>
	<path class="st8" d="M116.6,20.7L116.6,20.7c0.6-0.9,1.5-2.3,2.8-2.3c0.7,0,1.5,0.5,1.5,1.3c0,0.6-0.5,1.1-1,1.1
		c-0.8,0-1.2-0.8-1.7-0.8c-0.6,0-1.3,1.4-1.6,1.8v4.6c0,2,0,2.8,2,2.8v0.4h-5.7v-0.4c1.1,0,1.7-0.2,1.7-1.6v-6
		c0-1.7-0.5-1.7-0.9-1.7c-0.3,0-0.6,0.1-0.8,0.2l-0.2-0.4l3.3-1.3h0.5L116.6,20.7L116.6,20.7z"/>
	<path class="st8" d="M121.4,21.5c0-4.5,3.1-8.4,7.9-8.4s7.9,3.9,7.9,8.4s-3.1,8.4-7.9,8.4S121.4,26,121.4,21.5z M134.5,21.5
		c0-3.6-1.2-7.6-5.2-7.6s-5.2,3.9-5.2,7.6c0,3.6,1.2,7.6,5.2,7.6S134.5,25.1,134.5,21.5z"/>
	<path class="st8" d="M141.8,20.6c1.4-1.5,2.3-2.3,3.7-2.3c2,0,2.8,1.9,2.8,3.7v5.5c0,1.4,0.6,1.6,1.7,1.6v0.4h-5.3v-0.4
		c1.1,0,1.7-0.2,1.7-1.6v-5.1c0-2.4-1-2.7-1.7-2.7c-1.1,0-2,0.7-2.8,1.6v6.1c0,1.4,0.6,1.6,1.7,1.6v0.4h-5.3V29
		c1.1,0,1.7-0.2,1.7-1.6v-6c0-1.7-0.5-1.7-0.9-1.7c-0.3,0-0.6,0.1-0.8,0.2l-0.2-0.4l3.3-1.3h0.5L141.8,20.6L141.8,20.6z"/>
	<path class="st8" d="M154.3,27.5c0,1.4,0.6,1.6,1.7,1.6v0.4h-5.3v-0.4c1.1,0,1.7-0.2,1.7-1.6V15.9c0-1.7-0.5-1.7-0.9-1.7
		c-0.3,0-0.6,0.1-0.8,0.2l-0.2-0.4l3.3-1.3h0.5V27.5z"/>
	<path class="st8" d="M160.8,27.5c0,1.4,0.6,1.6,1.7,1.6v0.4h-5.3v-0.4c1.1,0,1.7-0.2,1.7-1.6v-6c0-1.7-0.5-1.7-0.9-1.7
		c-0.3,0-0.6,0.1-0.8,0.2l-0.2-0.4l3.3-1.3h0.5V27.5z M159.8,12.6c0.7,0,1.2,0.5,1.2,1.2s-0.5,1.2-1.2,1.2s-1.2-0.5-1.2-1.2
		C158.6,13.2,159.2,12.6,159.8,12.6z"/>
	<path class="st8" d="M166.8,20.6c1.4-1.5,2.3-2.3,3.7-2.3c2,0,2.8,1.9,2.8,3.7v5.5c0,1.4,0.6,1.6,1.7,1.6v0.4h-5.3v-0.4
		c1.1,0,1.7-0.2,1.7-1.6v-5.1c0-2.4-1-2.7-1.7-2.7c-1.1,0-2,0.7-2.8,1.6v6.1c0,1.4,0.6,1.6,1.7,1.6v0.4h-5.3V29
		c1.1,0,1.7-0.2,1.7-1.6v-6c0-1.7-0.5-1.7-0.9-1.7c-0.3,0-0.6,0.1-0.8,0.2l-0.2-0.4l3.3-1.3h0.5L166.8,20.6L166.8,20.6z"/>
	<path class="st8" d="M177.3,22.8c0,2.4,1.3,5.2,3.9,5.2c1.8,0,2.7-1,3.3-2.6l0.4,0.2c-0.4,2.2-2,4.3-4.5,4.3
		c-2.7,0-4.8-2.3-4.8-5.6c0-3.1,1.6-6,5.1-6c2.5,0,4.2,1.8,4.2,4.5C184.9,22.8,177.3,22.8,177.3,22.8z M182.4,22.1
		c0-1.5-0.8-2.9-2.5-2.9c-1.4,0-2.5,1.4-2.6,2.9H182.4z"/>
	<path class="st8" d="M198.6,26.6c-0.3,1.7-1.5,3.3-3.3,3.3c-2,0-3.4-1.8-3.4-4.2c0-2.6,1.8-4.2,3.8-4.2c1,0,2.7,0.7,2.7,1.9
		c0,0.5-0.3,0.7-0.8,0.7c-0.7,0-0.9-0.4-1-1c-0.1-0.7-0.5-1-1.2-1c-1.5,0-2.1,1.5-2.1,2.9c0,1.5,0.8,3.6,2.6,3.6
		c1.3,0,2.1-0.9,2.5-2H198.6z"/>
	<path class="st8" d="M207.3,25.4c0,1.8-1.1,4.4-3.9,4.4c-2.3,0-3.7-2-3.7-4.1c0-2.2,1.5-4.3,3.9-4.3
		C205.7,21.4,207.3,23.3,207.3,25.4z M201.2,24.9c0,1.5,0.5,4.3,2.5,4.3c1.6,0,1.9-1.8,1.9-3.1c0-1.5-0.5-4.2-2.5-4.2
		C202.3,22,201.2,22.7,201.2,24.9z"/>
	<path class="st8" d="M210.6,23.1c0.8-0.8,1.5-1.7,2.8-1.7c1,0,1.9,0.7,2,1.7c0.8-0.9,1.5-1.7,2.8-1.7c1.5,0,2.1,1.3,2.1,2.7v4
		c0,1,0.4,1.2,1.2,1.2v0.3h-3.9v-0.3c0.8,0,1.2-0.1,1.2-1.2v-3.5c0-1,0-2.1-1.3-2.1c-0.9,0-1.5,0.5-2.1,1.1v4.5c0,1,0.4,1.2,1.2,1.2
		v0.3h-3.9v-0.3c0.8,0,1.2-0.1,1.2-1.2v-3.5c0-1,0-2.1-1.3-2.1c-0.9,0-1.5,0.5-2.1,1.1v4.5c0,1,0.4,1.2,1.2,1.2v0.3h-3.9v-0.3
		c0.8,0,1.2-0.1,1.2-1.2v-4.3c0-1.2-0.4-1.2-0.6-1.2c-0.2,0-0.4,0.1-0.6,0.1l-0.1-0.3l2.4-1h0.4v1.7
		C210.5,23.1,210.6,23.1,210.6,23.1z"/>
</g>
</svg>
